# xmcd
#
# Track frame offsets:
#	150
#	14141
#	36437
#	56039
#	78521
#	88913
#	102897
#	119378
#	134065
#	142657
#	160357
#	170036
#	178663
#	188324
#	199310
#	208487
#	215851
#	221860
#	231539
#
# Disc length: 3216 seconds
#
# Revision: 2
# Processed by: cddbd v1.5.2PL0 Copyright (c) Steve Scherf et al.
# Submitted via: EasyCDDAExtractor 10.0.3.1
#
DISCID=360c8e13
DTITLE=DJMax Trilogy(R-Side) - DJMax Trilogy
DYEAR=2008
DGENRE=SoundTrack
TTITLE0=바람의 기억(mellowtonic MIX)
TTITLE1=Let's go baby(ACID HOUSE MIX)
TTITLE2=Elastic star(funktronic reformation)
TTITLE3=End of the moonlight(Club techtrain mix)
TTITLE4=Ya! party(DnB FREAKS)
TTITLE5=Stop(vapor trail twisted Mix)
TTITLE6=One the love(tropica Pinacolada MIX)
TTITLE7=Yo! MAX(nevertheless stay forever Mix)
TTITLE8=바람에게 부탁해 ORIGINAL MR
TTITLE9=바람에게 부탁해 LIVE verision MR
TTITLE10=LADY MADE STAR MR
TTITLE11=End of the moonlight MR
TTITLE12=NB POWER MR
TTITLE13=Space of soul MR
TTITLE14=태권부리 MR
TTITLE15=바람에게 부탁해-BPM108(C key)
TTITLE16=End of the moonlight-BPM155(D key)
TTITLE17=Lady Made Star-BPM140(F# key)
TTITLE18=Let's go baby-BPM110(A key)
EXTD=
EXTT0=
EXTT1=
EXTT2=
EXTT3=
EXTT4=
EXTT5=
EXTT6=
EXTT7=
EXTT8=
EXTT9=
EXTT10=
EXTT11=
EXTT12=
EXTT13=
EXTT14=
EXTT15=
EXTT16=
EXTT17=
EXTT18=
PLAYORDER=
